<svg xmlns="http://www.w3.org/2000/svg" viewBox="0 0 171.39 49.09" fill="var(--logo-colour)" >
  <path d="M3.86,41.58v6.8a.62.62,0,0,1-.16.41.59.59,0,0,1-.42.17.57.57,0,0,1-.41-.16.54.54,0,0,1-.16-.42V40.3a.54.54,0,0,0,0-.18.61.61,0,0,1,0-.19v-.1a.16.16,0,0,1,.06-.08h.79l.14.07.13.11,3.35,4.24L8.42,42.6l.87-1.11.57-.74.34-.45.17-.23.08-.11.08-.1.1-.08H11a.49.49,0,0,1,.54.37,1.76,1.76,0,0,1,.06.46v7.77a.61.61,0,0,1-.15.41A.52.52,0,0,1,11,49a.34.34,0,0,1-.2,0,.45.45,0,0,1-.19-.11.7.7,0,0,1-.13-.17.75.75,0,0,1-.05-.26V41.6L7.67,45.09l-.23.23a.46.46,0,0,1-.3.11.45.45,0,0,1-.3-.1,1.36,1.36,0,0,1-.24-.24Z" transform="translate(-0.31 0.04)"/>
  <path d="M22.65,40.26a.52.52,0,0,1-.17.42.61.61,0,0,1-.45.16H19.48v7.54a.62.62,0,0,1-.16.41.54.54,0,0,1-.41.17.53.53,0,0,1-.41-.16.54.54,0,0,1-.16-.42V40.84H15.75a.6.6,0,0,1-.44-.16.51.51,0,0,1-.18-.42.56.56,0,0,1,.17-.4.58.58,0,0,1,.45-.17H22a.68.68,0,0,1,.46.14A.55.55,0,0,1,22.65,40.26Z" transform="translate(-0.31 0.04)"/>
  <path d="M33.16,40.26a.52.52,0,0,1-.17.42.61.61,0,0,1-.45.16H30v7.54a.62.62,0,0,1-.16.41.54.54,0,0,1-.41.17A.53.53,0,0,1,29,48.8a.54.54,0,0,1-.16-.42V40.84H26.26a.6.6,0,0,1-.44-.16.51.51,0,0,1-.18-.42.56.56,0,0,1,.17-.4.58.58,0,0,1,.45-.17h6.26a.68.68,0,0,1,.46.14A.55.55,0,0,1,33.16,40.26Z" transform="translate(-0.31 0.04)"/>
  <path d="M49.33,43.22a3.16,3.16,0,0,1-.3,1.39,3.3,3.3,0,0,1-.81,1.08,3.75,3.75,0,0,1-1.15.69,4.1,4.1,0,0,1-1.43.25H43.88v1.75a.58.58,0,0,1-1,.41.57.57,0,0,1-.16-.41V40.26a.61.61,0,0,0,0-.19.49.49,0,0,1,0-.17.21.21,0,0,1,.09-.18.74.74,0,0,1,.36-.06h2.48a3.89,3.89,0,0,1,2.62,1,3.66,3.66,0,0,1,.8,1.15A3.27,3.27,0,0,1,49.33,43.22Zm-1.14,0a2.46,2.46,0,0,0-.21-1,2.6,2.6,0,0,0-.55-.8,2.87,2.87,0,0,0-.83-.53,2.65,2.65,0,0,0-1-.19H43.86v4.86H45.6a3.08,3.08,0,0,0,1-.16,2.77,2.77,0,0,0,.83-.48,2.24,2.24,0,0,0,.55-.74,2.15,2.15,0,0,0,.21-.94Z" transform="translate(-0.31 0.04)"/>
  <path d="M52.53,44.38a4.68,4.68,0,0,1,.36-1.81,4.7,4.7,0,0,1,2.48-2.48,4.69,4.69,0,0,1,1.81-.37,4.46,4.46,0,0,1,1.8.37,4.7,4.7,0,0,1,2.48,2.48,4.69,4.69,0,0,1,.37,1.81,4.46,4.46,0,0,1-.37,1.8A4.7,4.7,0,0,1,59,48.66a4.63,4.63,0,0,1-1.8.36,4.63,4.63,0,0,1-4.29-2.84A4.63,4.63,0,0,1,52.53,44.38Zm1.15,0A3.35,3.35,0,0,0,54,45.74a3.48,3.48,0,0,0,4.58,1.87,3.66,3.66,0,0,0,1.11-.76,3.52,3.52,0,0,0,0-5,3.63,3.63,0,0,0-1.11-.75,3.44,3.44,0,0,0-2.72,0,3.54,3.54,0,0,0-2.14,3.24Z" transform="translate(-0.31 0.04)"/>
  <path d="M66.14,39.67a.82.82,0,0,1,.56.18.81.81,0,0,1,.2.65v3.7l5-4.27a.94.94,0,0,1,.33-.2.66.66,0,0,1,.28,0,.56.56,0,0,1,.3.12.4.4,0,0,1,.16.28.5.5,0,0,1,0,.38.76.76,0,0,1-.27.32l-2.86,2.35L72.91,48l.11.2a.65.65,0,0,1,0,.2v.3a.44.44,0,0,1-.18.26.49.49,0,0,1-.35.11.63.63,0,0,1-.33-.09,1.26,1.26,0,0,1-.31-.38L69,43.93l-2.06,1.71v2.57a1.11,1.11,0,0,1-.13.59.48.48,0,0,1-.44.23.45.45,0,0,1-.45-.22,1.12,1.12,0,0,1-.13-.6v-7.9a.61.61,0,0,0,0-.19v-.18a.21.21,0,0,1,.08-.16A.65.65,0,0,1,66.14,39.67Z" transform="translate(-0.31 0.04)"/>
  <path d="M83.51,48.38a.51.51,0,0,1-.2.43.75.75,0,0,1-.46.15H77.7a.74.74,0,0,1-.57-.2.87.87,0,0,1-.18-.58v-8A.74.74,0,0,1,77,40a.21.21,0,0,1,.07-.18.45.45,0,0,1,.3-.07H83a.6.6,0,0,1,.46.17.56.56,0,0,1-.45,1H78.07v3h3.85a.7.7,0,0,1,.25,0,.9.9,0,0,1,.2.14.53.53,0,0,1,.11.21.42.42,0,0,1,0,.27.48.48,0,0,1-.19.31.66.66,0,0,1-.36.11H78.07v3h5a.65.65,0,0,1,.22.11.5.5,0,0,1,.15.17A.64.64,0,0,1,83.51,48.38Z" transform="translate(-0.31 0.04)"/>
  <path d="M93.84,43.22a3.16,3.16,0,0,1-.3,1.39,3.3,3.3,0,0,1-.81,1.08,3.92,3.92,0,0,1-1.18.7,4.16,4.16,0,0,1-1.44.25H88.39v1.74a.58.58,0,0,1-.58.58h0a.58.58,0,0,1-.41-.17.57.57,0,0,1-.16-.41V40.26a.61.61,0,0,0,0-.19.49.49,0,0,1,0-.17.23.23,0,0,1,.08-.18.74.74,0,0,1,.36-.06h2.39a4,4,0,0,1,1.44.27,3.84,3.84,0,0,1,1.18.74,3.54,3.54,0,0,1,.81,1.14A3.29,3.29,0,0,1,93.84,43.22Zm-1.14,0a2.66,2.66,0,0,0-.2-1,2.81,2.81,0,0,0-.56-.8,2.65,2.65,0,0,0-1.83-.72H88.38v4.86h1.69a3.08,3.08,0,0,0,1-.16,2.65,2.65,0,0,0,.83-.48,2.23,2.23,0,0,0,.56-.74,2.33,2.33,0,0,0,.24-.94Zm-.63,2.31,1.65,2.58a.55.55,0,0,1-.09.76l0,0a.55.55,0,0,1-.43.1.62.62,0,0,1-.37-.24L91,45.9Z" transform="translate(-0.31 0.04)"/>
  <path d="M108.48,41.89a.42.42,0,0,1-.27,0,1.39,1.39,0,0,1-.27-.21,3.78,3.78,0,0,0-.41-.39,1.92,1.92,0,0,0-.42-.28,2,2,0,0,0-.46-.17,2.24,2.24,0,0,0-.52-.06,1.76,1.76,0,0,0-.6.1,1.89,1.89,0,0,0-.54.25,1.34,1.34,0,0,0-.4.42,1,1,0,0,0,0,1.13,2.21,2.21,0,0,0,.55.46,7,7,0,0,0,.78.38l.9.38q.47.2.9.42a4.08,4.08,0,0,1,.78.52,2.42,2.42,0,0,1,.55.68,1.89,1.89,0,0,1,.21.9,2.24,2.24,0,0,1-.27,1.07,3.05,3.05,0,0,1-.73.83,3.43,3.43,0,0,1-1,.53,4,4,0,0,1-1.23.19,3.66,3.66,0,0,1-1.14-.16,3.18,3.18,0,0,1-.88-.4,2.74,2.74,0,0,1-.62-.56,2.16,2.16,0,0,1-.35-.63,1,1,0,0,1,0-.25.86.86,0,0,1,.06-.23.55.55,0,0,1,.16-.18.58.58,0,0,1,.26-.06.48.48,0,0,1,.26.07,1.1,1.1,0,0,1,.23.2,1.68,1.68,0,0,0,.3.4,1.79,1.79,0,0,0,.46.36,2.24,2.24,0,0,0,.6.25,2.3,2.3,0,0,0,.69.1,2.57,2.57,0,0,0,.73-.1,2.32,2.32,0,0,0,.67-.28,1.54,1.54,0,0,0,.48-.47,1,1,0,0,0,.19-.63,1,1,0,0,0-.2-.61,2.73,2.73,0,0,0-.54-.48,8,8,0,0,0-.77-.4l-.88-.37c-.3-.13-.6-.26-.88-.41a3.32,3.32,0,0,1-.77-.51,2.15,2.15,0,0,1-.54-.66,1.69,1.69,0,0,1-.21-.88,2,2,0,0,1,.23-1,2.4,2.4,0,0,1,.63-.75,2.89,2.89,0,0,1,.91-.5,3.78,3.78,0,0,1,1.11-.17,3.37,3.37,0,0,1,1,.16,3.76,3.76,0,0,1,.91.42,3,3,0,0,1,.64.54.88.88,0,0,1,.25.53.53.53,0,0,1,0,.25.48.48,0,0,1-.12.16.71.71,0,0,1-.18.08Z" transform="translate(-0.31 0.04)"/>
  <path d="M119.9,42a3.45,3.45,0,0,0-3.89-.84,3.63,3.63,0,0,0-1.11.75,3.52,3.52,0,0,0,0,5l0,0a3.81,3.81,0,0,0,1.11.75,3.52,3.52,0,0,0,1.36.28,3.74,3.74,0,0,0,.81-.1,3.55,3.55,0,0,0,.71-.26,4.18,4.18,0,0,0,.63-.4,5.57,5.57,0,0,0,.57-.52.5.5,0,0,1,.29-.12.45.45,0,0,1,.32.06.58.58,0,0,1,.23.18A.47.47,0,0,1,121,47a.61.61,0,0,1-.19.44,7,7,0,0,1-.74.7,3.82,3.82,0,0,1-1.66.78,5.36,5.36,0,0,1-1.06.1,4.69,4.69,0,0,1-1.81-.37,5,5,0,0,1-1.48-1,4.5,4.5,0,0,1-1-1.48,4.35,4.35,0,0,1-.37-1.81,5,5,0,0,1,.16-1.22,4.94,4.94,0,0,1,.47-1.11,4.75,4.75,0,0,1,.73-1,5.14,5.14,0,0,1,1-.67,4.23,4.23,0,0,1,1.12-.47,3.93,3.93,0,0,1,1.23-.17,5.82,5.82,0,0,1,.93.07,3.7,3.7,0,0,1,1.64.69,5,5,0,0,1,.77.68.63.63,0,0,1,.13.2.89.89,0,0,1,0,.23.45.45,0,0,1,0,.23.49.49,0,0,1-.16.19.64.64,0,0,1-.35.14A.67.67,0,0,1,119.9,42Z" transform="translate(-0.31 0.04)"/>
  <path d="M132.4,48.38a.7.7,0,0,1-.16.46.57.57,0,0,1-.79.06l-.06-.06a.74.74,0,0,1-.15-.45V45h-5.17v3.4a.7.7,0,0,1-.14.44.51.51,0,0,1-.43.2.53.53,0,0,1-.44-.2.77.77,0,0,1-.14-.44v-8.1a.54.54,0,0,0,0-.18v-.18a.22.22,0,0,1,.07-.17.65.65,0,0,1,.34-.06,1,1,0,0,1,.6.14.5.5,0,0,1,.19.43v3.57h5.15V40.28a.54.54,0,0,0,0-.18.54.54,0,0,1,0-.18.2.2,0,0,1,.09-.17.74.74,0,0,1,.36-.06h.3a.72.72,0,0,1,.24.1.55.55,0,0,1,.16.18.63.63,0,0,1,.06.27Z" transform="translate(-0.31 0.04)"/>
  <path d="M136.24,44.38a4.51,4.51,0,0,1,.37-1.81,4.66,4.66,0,0,1,1-1.48,5,5,0,0,1,1.48-1,4.69,4.69,0,0,1,1.81-.37,4.46,4.46,0,0,1,1.8.37,4.7,4.7,0,0,1,2.48,2.48,4.51,4.51,0,0,1,.37,1.81,4.3,4.3,0,0,1-.37,1.8,4.7,4.7,0,0,1-2.48,2.48,4.63,4.63,0,0,1-1.8.36,4.68,4.68,0,0,1-1.81-.36,5,5,0,0,1-1.48-1,4.5,4.5,0,0,1-1-1.48A4.3,4.3,0,0,1,136.24,44.38Zm1.15,0a3.52,3.52,0,0,0,3.5,3.51,3.35,3.35,0,0,0,1.36-.28,3.66,3.66,0,0,0,1.11-.76,3.52,3.52,0,0,0,0-5l0,0a3.63,3.63,0,0,0-1.11-.75,3.19,3.19,0,0,0-1.36-.28,3.51,3.51,0,0,0-2.47,1,3.39,3.39,0,0,0-.75,1.12,3.56,3.56,0,0,0-.28,1.44Z" transform="translate(-0.31 0.04)"/>
  <path d="M149,44.38a4.69,4.69,0,0,1,.37-1.81,4.5,4.5,0,0,1,1-1.48,5,5,0,0,1,1.48-1,4.51,4.51,0,0,1,1.81-.37,4.64,4.64,0,0,1,1.8.37,4.79,4.79,0,0,1,1.47,1,5,5,0,0,1,1,1.48,4.51,4.51,0,0,1,.37,1.81,4.3,4.3,0,0,1-.37,1.8,4.5,4.5,0,0,1-1,1.48,4.79,4.79,0,0,1-1.47,1,4.63,4.63,0,0,1-1.8.36,4.5,4.5,0,0,1-1.81-.36,5,5,0,0,1-1.48-1,4.4,4.4,0,0,1-1-1.48A4.46,4.46,0,0,1,149,44.38Zm1.16,0a3.51,3.51,0,0,0,.27,1.36,3.59,3.59,0,0,0,1.86,1.87,3.5,3.5,0,0,0,2.73,0,3.66,3.66,0,0,0,1.11-.76,3.37,3.37,0,0,0,.74-1.12,3.47,3.47,0,0,0,0-2.72,3.37,3.37,0,0,0-.74-1.12,3.63,3.63,0,0,0-1.11-.75,3.5,3.5,0,0,0-2.73,0,3.63,3.63,0,0,0-1.11.75,3.39,3.39,0,0,0-.75,1.12A3.56,3.56,0,0,0,150.12,44.38Z" transform="translate(-0.31 0.04)"/>
  <path d="M168.72,48.38a.54.54,0,0,1-.17.43.58.58,0,0,1-.39.15H163a.71.71,0,0,1-.55-.23.74.74,0,0,1-.22-.56v-7.9a.54.54,0,0,0,0-.18.54.54,0,0,1,0-.18.21.21,0,0,1,.09-.18.74.74,0,0,1,.36-.06.83.83,0,0,1,.57.18.85.85,0,0,1,.19.65v7.31h4.8a.67.67,0,0,1,.2,0,.45.45,0,0,1,.19.11.49.49,0,0,1,.14.18A.66.66,0,0,1,168.72,48.38Z" transform="translate(-0.31 0.04)"/>
  <path d="M51.67,0A10,10,0,0,1,53,.38a2.73,2.73,0,0,1,.67.55c-.18.18-.34.47-.56.54a24.47,24.47,0,0,1-2.81.68c-3.87.67-7.76,1.21-11.61,2-2.13.41-1.82.23-2.21,2.23s-.83,3.88-1.28,5.82c-.3,1.3-.28,1.37,1,1.25,2.58-.24,5.15-.51,7.73-.74a5.18,5.18,0,0,1,2,0,2,2,0,0,1,1.12,1c.23.61-.43.73-.87.83-1.6.35-3.21.71-4.83,1-2.18.38-4.37.65-6.54,1.08a1.65,1.65,0,0,0-1,1c-.88,3.27-1.68,6.55-2.52,9.83-.18.75,0,1,.84.89,3.38-.6,6.75-1.19,10.14-1.73,2.58-.41,5.18-.75,7.77-1.09a3.15,3.15,0,0,1,1.09.29c0-.35.08-.69.08-1q0-7.54-.07-15.1V9.15c0-.67,0-1.42.81-1.59s1,.59,1.28,1.12A10.35,10.35,0,0,1,54.48,14c-.15,2.91,0,5.84,0,8.76a2.08,2.08,0,0,0,.19.88c2.1-3.45,3.79-7.18,7-10,2.1,3.21,2.63,6.88,4.29,10.24a9.41,9.41,0,0,0,.71-.83,78.6,78.6,0,0,1,9.93-11.69A81.72,81.72,0,0,1,87.28,2.54c.6-.42.61-.42,2.32.28-.64.71-1.24,1.39-1.86,2.05a208.94,208.94,0,0,0-17.3,20.51,51.83,51.83,0,0,0-2.65,4.49,2.47,2.47,0,0,0-.18.52c-.12.4-.17,1.08-.38,1.13a3.41,3.41,0,0,1-1.9,0,2.72,2.72,0,0,1-1.66-1.89c-.9-3.65-1.85-7.28-2.78-10.92a3.13,3.13,0,0,0-.22-.66c-.72,1.2-1.44,2.16-1.94,3.23-1.37,3-2.67,6-3.94,9-.5,1.2-.89,1.56-2,1.42a2,2,0,0,1-1.65-2V26.77l-5.37,1.91a67.72,67.72,0,0,1-16,3.22,1.47,1.47,0,0,1-1-.36,14.62,14.62,0,0,1-1.57-1.85,1.14,1.14,0,0,1-.19-.84Q29.26,18.9,31.54,9a.66.66,0,0,0-.14-.59c-.78,1.76-1.63,3.5-2.33,5.3q-3,7.77-5.87,15.58a25.65,25.65,0,0,0-.73,2.7,1.5,1.5,0,0,1-1.4,1.3,1.6,1.6,0,0,1-1.71-1c-.69-1.49-1.41-3-1.95-4.52A148.64,148.64,0,0,1,12.36,9c-.07-.33-.17-.65-.28-1.12L3.13,31.31A6.14,6.14,0,0,1,.35,29.08c-.09-.11,0-.4,0-.58,3-9,7-17.6,10.73-26.28a3.48,3.48,0,0,1,.35-.66c.36-.54.83-.67,1.13,0A34.51,34.51,0,0,1,14,5.08q3.19,9.83,6.36,19.66a8.52,8.52,0,0,0,.4.8c.27-.76.48-1.28.65-1.82A136.76,136.76,0,0,1,29.18,5.19a17.53,17.53,0,0,1,2.47-3.33,2.88,2.88,0,0,1,1.42-.75c1.27-.38,1.51-.17,1.32,1.15a2.31,2.31,0,0,0,.83-.1A77.16,77.16,0,0,1,48.58.29,3.1,3.1,0,0,0,49.42,0Z" transform="translate(-0.31 0.04)"/>
  <path d="M169.87,0a12,12,0,0,1,1.2.38,3.23,3.23,0,0,1,.63.47c-.18.2-.31.51-.52.58a25,25,0,0,1-2.71.69c-3.84.66-7.69,1.29-11.53,1.93a2.88,2.88,0,0,0-.64.12c-1.54.4-1.5.44-1.79,2-.38,2.05-.87,4.07-1.32,6.1-.07.33-.13.65-.24,1.2,1.19-.09,2.26-.16,3.32-.25,2.36-.19,4.72-.42,7.08-.58a2.13,2.13,0,0,1,1.23.31,1.22,1.22,0,0,1,.45.92c0,.22-.4.57-.67.62-2.84.52-5.7,1-8.54,1.49-1.13.21-2.25.47-3.36.75a.94.94,0,0,0-.57.53c-.91,3.55-1.79,7.1-2.67,10.66a1.67,1.67,0,0,0,.05.5c.78-.07,1.55-.06,2.29-.2,3.72-.66,7.42-1.39,11.14-2,1.75-.3,3.52-.47,5.29-.62.28,0,.85.35.85.54a1.25,1.25,0,0,1-.53,1c-2.23.79-4.48,1.54-6.75,2.21A72.05,72.05,0,0,1,148,31.87a1.63,1.63,0,0,1-1.45-.56c-1.44-1.28-1.63-2.67-1.16-4.54,1.9-7.59,3.61-15.22,5.38-22.84a2.06,2.06,0,0,1,1.78-1.68c2.91-.53,5.82-1.09,8.75-1.52,1.78-.27,3.59-.31,5.39-.48a2.85,2.85,0,0,0,.75-.29Z" transform="translate(-0.31 0.04)"/>
  <path d="M146,15.81a1.6,1.6,0,0,1-.11,2.27,1.46,1.46,0,0,1-.28.21,1.56,1.56,0,0,0-.47.87,2,2,0,0,0,0,.92c.43,2.5-.77,4.21-2.62,5.68a30.94,30.94,0,0,1-12,5.59c-.69.18-1.4.32-2.09.51A6.5,6.5,0,0,1,122,30.38a14.31,14.31,0,0,1-4.35-6.51,9.6,9.6,0,0,1,.29-5.59c1.49-5.25,4.9-8.91,9.64-11.45A44.37,44.37,0,0,1,141,2.2a6.54,6.54,0,0,1,4,.4,3.65,3.65,0,0,1,2.12,2.61c-1.42.14-2.73.19-4,.4-7.65,1.25-14.31,4.41-19.57,10.2a9.67,9.67,0,0,0-1.26,1.84c-1.09,2-1.4,4,0,6q1.52,2.07,3,4.13A3.64,3.64,0,0,0,129.41,29a38.25,38.25,0,0,0,11.31-4.78,3,3,0,0,0,1.62-2.86,9.47,9.47,0,0,1,.09-1.3c.09-1-.12-1.27-1.16-1.12-2,.28-4.06.64-6.09,1-.61.1-1.22.24-1.84.31-.85.11-1.15-.44-1.32-1.14s-.16-1.13.7-1.41a57.14,57.14,0,0,1,10.79-2.6A2.46,2.46,0,0,1,146,15.81Z" transform="translate(-0.31 0.04)"/>
  <path d="M118.57,2c.2-.63,0-.95-.62-1.06L115.43.51a7.78,7.78,0,0,0-1.61,1c-1.46,1.53-2.76,3.22-4.27,4.69C105,10.65,100.31,15,95.77,19.38A35.17,35.17,0,0,0,89,28.56c-.84,1.66-.65,2.13,1.16,2.78.17.07.36.11.52.19.56.27.89.09,1.24-.41,1.53-2.18,3.07-4.29,4.53-6.49a2.62,2.62,0,0,1,2.78-1.2c3.3.41,6.65.79,10,1.16.65.11.67.5.73,1,.18,1.54.36,3.08.66,4.6v0a2.32,2.32,0,0,0,2.61,2,1.58,1.58,0,0,0,1.16-.81,6.84,6.84,0,0,0,.28-2.66,51.34,51.34,0,0,1,2.21-21C117.42,5.81,118,3.91,118.57,2Zm-6.93,9.77a34.44,34.44,0,0,0-1.54,9.34c0,.53,0,.95-.73.88l-9.58-1c-.12,0-.22-.11-.48-.24,4.17-5.44,9.26-9.82,14.12-14.44h0C112.85,8.14,112.16,9.93,111.64,11.78Z" transform="translate(-0.31 0.04)"/>
</svg>
